<svg width="128" height="128" viewBox="0 0 128 128" fill="none" xmlns="http://www.w3.org/2000/svg">
<g clip-path="url(#clip0_111_25)">
<path d="M39.0693 77.875L4.74121 119.769V56.3531L39.0693 77.875Z" fill="#FDE3E3"/>
<path d="M43.1182 80.4145L63.9995 93.5042L85.1016 80.275L120.32 123.258H8.00885L43.1182 80.4145Z" fill="#FDE3E3"/>
<path d="M89.1495 77.7355L123.258 56.3531V119.364L89.1495 77.7355Z" fill="#FDE3E3"/>
<path d="M120.497 52.4885L108.12 60.249V47.3011L120.497 52.4885Z" fill="#F16061"/>
<path d="M22.2495 64.5312V2.37076H105.749V64.5312L63.9994 90.7063L22.2495 64.5312Z" fill="white"/>
<path d="M19.8796 60.249L7.50049 52.4885L19.8796 47.3011V60.249Z" fill="#F16061"/>
<path d="M122.137 125.477L83.0412 77.7626L86.7078 74.7563L125.804 122.471L122.137 125.477Z" fill="#393939"/>
<path d="M66.6554 91.8391C65.0312 92.8574 62.9678 92.8574 61.3436 91.8391L3.11955 55.3363C2.01031 54.6408 1.67501 53.1778 2.37069 52.0687V52.0687C3.06613 50.96 4.52854 50.6248 5.63741 51.32L61.3438 86.2415C62.9679 87.2596 65.0311 87.2597 66.6552 86.2415L122.362 51.3201C123.471 50.625 124.934 50.9605 125.629 52.0695V52.0695C126.324 53.1783 125.988 54.6404 124.88 55.3355L66.6554 91.8391Z" fill="#393939"/>
<path d="M127.999 123C127.999 125.761 125.761 128 122.999 128H5.00055C2.23912 128 0.000549316 125.761 0.000549316 123V53.8184C0.000549316 51.8038 1.2096 49.986 3.06755 49.2072L19.811 42.1884C21.0185 41.6822 22.4077 42.2507 22.914 43.4582V43.4582C23.4203 44.6658 22.8517 46.0552 21.644 46.5614L7.80848 52.3603C5.9504 53.1391 4.74124 54.957 4.74124 56.9716V118.258C4.74124 121.02 6.97982 123.258 9.74124 123.258H118.258C121.019 123.258 123.258 121.02 123.258 118.258V56.9718C123.258 54.957 122.048 53.1391 120.19 52.3604L106.353 46.5613C105.145 46.0552 104.577 44.6657 105.083 43.4581V43.4581C105.589 42.2507 106.978 41.6822 108.186 42.1882L124.932 49.2072C126.79 49.986 127.999 51.8039 127.999 53.8186V123Z" fill="#393939"/>
<path d="M108.241 63.6292C108.241 64.9386 107.179 66 105.87 66V66C104.561 66 103.499 64.9386 103.499 63.6292V11.7418C103.499 8.98033 101.261 6.74176 98.4991 6.74176H29.7407C26.9793 6.74176 24.7407 8.98034 24.7407 11.7418V63.6297C24.7407 64.9388 23.6795 66 22.3703 66V66C21.0612 66 20 64.9388 20 63.6297V7C20 4.23858 22.2386 2 25 2H103.241C106.002 2 108.241 4.23858 108.241 7V63.6292Z" fill="#393939"/>
<path d="M6.19213 125.477L2.52557 122.471L41.6245 74.7563L45.2912 77.7626L6.19213 125.477Z" fill="#393939"/>
<path d="M81.5 62H84M74 62H69V54.5M76.5 54.5H84V47H81.5M69 47H74M44 54.4993C44 52.1698 44 51.0048 44.3806 50.086C44.8881 48.8608 45.8608 47.888 47.0859 47.3805C48.0048 47 49.1697 47 51.4994 47C53.8291 47 54.9952 47 55.9141 47.3805C57.1392 47.888 58.1117 48.8608 58.6192 50.086C58.9998 51.0048 58.9998 52.1703 58.9998 54.5C58.9998 56.8298 58.9998 57.9945 58.6192 58.9135C58.1117 60.1385 57.1392 61.1118 55.9141 61.6193C54.9952 61.9998 53.8291 61.9998 51.4994 61.9998C49.1697 61.9998 48.0048 61.9998 47.0859 61.6193C45.8608 61.1118 44.8881 60.1393 44.3806 58.914C44 57.9953 44 56.829 44 54.4993ZM69 29.4994C69 27.1697 69 26.0048 69.3805 25.0859C69.888 23.8608 70.8608 22.8881 72.086 22.3806C73.0048 22 74.1698 22 76.4993 22C78.829 22 79.9953 22 80.914 22.3806C82.1393 22.8881 83.1118 23.8608 83.6193 25.0859C83.9998 26.0048 83.9998 27.1703 83.9998 29.5C83.9998 31.8297 83.9998 32.9946 83.6193 33.9134C83.1118 35.1386 82.1393 36.1117 80.914 36.6192C79.9953 36.9998 78.829 36.9998 76.4993 36.9998C74.1698 36.9998 73.0048 36.9998 72.086 36.6192C70.8608 36.1117 69.888 35.1392 69.3805 33.9141C69 32.9952 69 31.8291 69 29.4994ZM44 29.4994C44 27.1697 44 26.0048 44.3806 25.0859C44.8881 23.8608 45.8608 22.8881 47.0859 22.3806C48.0048 22 49.1697 22 51.4994 22C53.8291 22 54.9952 22 55.9141 22.3806C57.1392 22.8881 58.1117 23.8608 58.6192 25.0859C58.9998 26.0048 58.9998 27.1703 58.9998 29.5C58.9998 31.8297 58.9998 32.9946 58.6192 33.9134C58.1117 35.1386 57.1392 36.1117 55.9141 36.6192C54.9952 36.9998 53.8291 36.9998 51.4994 36.9998C49.1697 36.9998 48.0048 36.9998 47.0859 36.6192C45.8608 36.1117 44.8881 35.1392 44.3806 33.9141C44 32.9952 44 31.8291 44 29.4994Z" stroke="#393939" stroke-width="4" stroke-linecap="round" stroke-linejoin="round"/>
</g>
<defs>
<clipPath id="clip0_111_25">
<rect width="128" height="128" fill="white"/>
</clipPath>
</defs>
</svg>
